<?xml version="1.0" encoding="utf-8"?>
<!-- Generator: Adobe Illustrator 17.0.0, SVG Export Plug-In . SVG Version: 6.00 Build 0)  -->
<!DOCTYPE svg PUBLIC "-//W3C//DTD SVG 1.1//EN" "http://www.w3.org/Graphics/SVG/1.1/DTD/svg11.dtd">
<svg version="1.1" id="Camada_1" xmlns="http://www.w3.org/2000/svg" xmlns:xlink="http://www.w3.org/1999/xlink" x="0px" y="0px"
	 width="1000px" height="1000px" viewBox="0 0 1000 1000" enable-background="new 0 0 1000 1000" xml:space="preserve">
<linearGradient id="SVGID_1_" gradientUnits="userSpaceOnUse" x1="174.5851" y1="177.6599" x2="820.8123" y2="823.8871">
	<stop  offset="0" style="stop-color:#9BCFFF"/>
	<stop  offset="1" style="stop-color:#3398F4"/>
</linearGradient>
<path fill="url(#SVGID_1_)" d="M948.804,580.855c-26.706,148.676-128.902,277.613-266.866,338.658c-0.055,0-0.11,0.055-0.165,0.055
	c-68.381,22.83-107.384,24.206-128.62,15.073c-0.055,0-3.026-1.375-4.401-2.146c-0.22-0.11-5.666-3.961-5.776-4.071
	c-14.909-11.553-17.549-24.04-17.769-25.526c-0.055-0.11-0.055-0.165-0.055-0.165s0.055,0,0.055,0.055
	c-3.631-12.763-1.76-33.613,23.655-63.76c0,0,80.987-91.936,79.569-110.561c-3.195-41.957-62.602,19.598-73.04,29.079
	c-11.43,10.381-24.937,24.237-41.22,25.713c-21.627,1.96-17.409-17.754-11.811-31.142c17.01-40.683,46.064-71.912,72.722-106.425
	c12.237-15.842,23.29-32.143,30.092-51.127c3.869-10.799,12.114-42.006-6.992-44.481c-14.593-1.891-31.737,27.169-40.558,36.396
	c-16.693,17.459-33.213,35.03-49.511,52.86c-11.536,12.621-56.513,75.608-79.328,53.539c-14.018-13.559,0.047-48.815,4.817-63.619
	c7.967-24.729,17.574-48.773,25.319-73.6c5.37-17.215,45.909-109.535,3.014-108.019c-18.512,0.654-23.497,20.259-30.327,33.89
	c-11.112,22.175-67.995,153.981-72.735,164.74c-3.587,8.143-7.54,21.499-18.341,22.411c-17.942,1.515-21.901-31.483-23.606-43.454
	c-2.999-21.058-13.081-103.008-19.199-122.016c-4.806-14.931-13.208-40.538-32.831-39.175
	c-21.689,1.506-22.823,22.319-19.906,39.078c4.317,24.799,20,175.32,25.487,225.293c2.237,20.371,3.959,40.77,5.957,61.158
	c1.674,17.085,5.227,36.385,20.946,46.213c26.358,16.481,54.734-15.557,70.667-32.978c13.009-14.224,46.593-62.924,67.85-38.015
	c20.183,23.65-24.353,72.004-36.801,87.986c-24.979,32.071-53.024,65.665-98.693,56.173c-37.748-7.845-73.317-38.366-101.638-63.14
	C140.292,794.661,95.37,728.614,68.867,655.617c-47.824-131.719-31.99-280.348,42.781-398.902
	c36.809-58.364,86.802-108.416,145.43-144.859c33.161-20.612,69.798-36.93,108.167-44.829C400.058,59.86,440,55.644,468,83.651
	v0.055c0,1.32,1.785,2.64,2.06,3.961c5.258,17.527-6.879,35.819-17.02,49.083c-14.022,18.341-30.725,34.517-45.14,52.537
	c-9.547,11.933-63.4,67.616-38.486,84.741c12.423,8.539,72.317-50.592,88.779-61.829c8.488-5.794,25.635-13.041,33.318-1.936
	c5.403,7.809,1.101,19.747-1.962,27.579c-22.875,58.492-78.806,96.331-102.129,154.384c-4.866,12.112-9.41,30.539-2.535,42.934
	c11.189,20.173,38.533-21.289,45.562-28.638c30.426-31.813,59.359-65.362,90.271-96.642c16.072-16.263,47.081-27.093,46.295,5.266
	c-0.601,24.755-41.098,134.287-50.716,165.616c-4.888,15.923-10.924,39.165-0.032,54.082c11.405,15.62,29.558,3.017,36.208-9.383
	c22.687-42.3,76.217-174.86,87.153-194.649c10.615-19.21,26.383-1.564,30.818,11.759c7.709,23.159,12.364,216.006,68.781,178.616
	c9.098-6.03,10.958-16.969,9.113-27.085c-3.525-19.113-16.299-136.971-20.722-176.558c-4.047-36.226-5.465-72.864-10.097-108.976
	c-3.444-26.857-14.379-72.837-51.662-57.008c-13.906,5.904-62.115,53.579-74.788,67.171c-23.914,25.65-48.452-2.523-35.543-30.337
	c6.959-14.994,49.667-72.22,62.283-85.613c20.506-21.768,58.691-17.23,79.806-11.041s0.11,0,0.11,0
	C880.601,178.715,984.437,381.497,948.804,580.855C943.083,612.708,961.567,509.449,948.804,580.855z"/>
</svg>
